<?xml version="1.0" encoding="utf-8"?>
<!-- Generator: Adobe Illustrator 25.2.0, SVG Export Plug-In . SVG Version: 6.00 Build 0)  -->
<svg version="1.1" id="Layer_1" xmlns="http://www.w3.org/2000/svg" xmlns:xlink="http://www.w3.org/1999/xlink" x="0px" y="0px"
	 viewBox="0 0 314.91 321.51" style="enable-background:new 0 0 314.91 321.51;" xml:space="preserve">
<style type="text/css">
	.st0{fill:#E4003A;}
	.st1{fill:#FFFFFF;}
</style>
<rect x="62.98" y="63.21" class="st0" width="188.95" height="195.08"/>
<g>
	<path class="st1" d="M157.45,126.19c-10.15,0-18.4,8.26-18.4,18.4v0.73h0v18.17c5.89-0.65,10.47-5.64,10.47-11.7v-4.32h0v-2.87
		c0-4.37,3.56-7.93,7.93-7.93c4.37,0,7.93,3.56,7.93,7.93v0.73h0v6.47c0,6.06,4.58,11.05,10.47,11.7v-14.74h0v-4.16
		C175.86,134.45,167.6,126.19,157.45,126.19z"/>
	<path class="st1" d="M157.45,158.51c-10.15,0-18.4,8.25-18.4,18.4c0,10.15,8.25,18.4,18.4,18.4c10.15,0,18.4-8.26,18.4-18.4
		C175.86,166.76,167.6,158.51,157.45,158.51z M157.45,184.84c-4.37,0-7.93-3.56-7.93-7.93c0-4.37,3.56-7.93,7.93-7.93
		c4.37,0,7.93,3.56,7.93,7.93C165.39,181.28,161.83,184.84,157.45,184.84z"/>
	<path class="st1" d="M128.51,126.19h-2.55v25.6c0,6.06,4.58,11.05,10.47,11.7v-29.38C136.43,129.74,132.89,126.19,128.51,126.19z"
		/>
	<path class="st1" d="M186.4,126.19c-4.37,0-7.92,3.55-7.92,7.92v29.38c5.89-0.65,10.47-5.64,10.47-11.7v-25.6H186.4z"/>
</g>
</svg>
