<?xml version="1.0" encoding="utf-8"?>
<!-- Generator: Adobe Illustrator 25.2.0, SVG Export Plug-In . SVG Version: 6.00 Build 0)  -->
<svg version="1.1" id="Layer_1" xmlns="http://www.w3.org/2000/svg" xmlns:xlink="http://www.w3.org/1999/xlink" x="0px" y="0px"
	 viewBox="0 0 238.08 170.38" style="enable-background:new 0 0 238.08 170.38;" xml:space="preserve">
<style type="text/css">
	.st0{fill:#E4003A;}
	.st1{fill:#FFFFFF;}
</style>
<rect x="48.67" y="48.67" class="st0" width="140.74" height="73.04"/>
<g>
	<path class="st1" d="M71.31,93.58c0-2.05,1.73-3.78,3.77-3.78c2.05,0,3.77,1.73,3.77,3.78c0,2.04-1.73,3.77-3.77,3.77
		C73.04,97.36,71.31,95.63,71.31,93.58"/>
	<rect x="88.37" y="73.41" class="st1" width="7.12" height="23.52"/>
	<polygon class="st1" points="122.52,96.93 113.85,85.01 113.85,96.93 106.72,96.93 106.72,73.41 114.06,73.41 122.23,84.55 
		122.23,73.41 129.36,73.41 129.36,96.93 	"/>
	<path class="st1" d="M157.85,85.19c0-3.28-2.22-5.89-5.64-5.89s-5.65,2.61-5.65,5.89c0,3.28,2.22,5.89,5.65,5.89
		S157.85,88.47,157.85,85.19 M139.33,85.19c0-7.23,5.61-12.16,12.87-12.16c7.26,0,12.87,4.94,12.87,12.16
		c0,7.23-5.61,12.17-12.87,12.17C144.94,97.36,139.33,92.42,139.33,85.19"/>
</g>
</svg>
