<?xml version="1.0" encoding="utf-8"?>
<!-- Generator: Adobe Illustrator 25.2.0, SVG Export Plug-In . SVG Version: 6.00 Build 0)  -->
<svg version="1.1" id="Layer_1" xmlns="http://www.w3.org/2000/svg" xmlns:xlink="http://www.w3.org/1999/xlink" x="0px" y="0px"
	 viewBox="0 0 463.7 218.56" style="enable-background:new 0 0 463.7 218.56;" xml:space="preserve">
<style type="text/css">
	.st0{fill:#E4003A;}
	.st1{fill:#FFFFFF;}
</style>
<g>
	<rect x="48.52" y="48.52" class="st0" width="366.66" height="121.52"/>
	<g>
		<path class="st1" d="M95.48,117.65c0-2.05,1.73-3.78,3.77-3.78c2.05,0,3.77,1.73,3.77,3.78c0,2.04-1.73,3.77-3.77,3.77
			C97.21,121.42,95.48,119.69,95.48,117.65"/>
		<rect x="112.54" y="97.48" class="st1" width="7.12" height="23.51"/>
		<polygon class="st1" points="146.68,121 138.01,109.08 138.01,121 130.88,121 130.88,97.48 138.22,97.48 146.39,108.62 
			146.39,97.48 153.52,97.48 153.52,121 		"/>
		<path class="st1" d="M181.99,109.26c0-3.28-2.22-5.89-5.64-5.89s-5.64,2.61-5.64,5.89c0,3.28,2.22,5.89,5.64,5.89
			S181.99,112.54,181.99,109.26 M163.48,109.26c0-7.23,5.61-12.16,12.87-12.16c7.26,0,12.87,4.93,12.87,12.16
			c0,7.23-5.61,12.17-12.87,12.17C169.09,121.42,163.48,116.48,163.48,109.26"/>
		<path class="st1" d="M197.39,117.68l3.7-5.29c1.76,1.69,4.4,3.03,7.58,3.03c1.34,0,2.61-0.36,2.61-1.27
			c0-2.25-13.11,0.04-13.11-9.24c0-3.98,3.31-7.79,9.76-7.79c3.85,0,7.3,1.09,9.98,3.28l-3.81,5.04c-2.04-1.55-4.69-2.32-6.91-2.32
			c-1.41,0-1.8,0.46-1.8,1.06c0,2.22,13.08,0.31,13.08,9.06c0,5.19-3.84,8.18-10.15,8.18C203.32,121.42,199.9,119.94,197.39,117.68"
			/>
		<polygon class="st1" points="232.56,121 232.56,103.68 226.25,103.68 226.25,97.48 245.95,97.48 245.95,103.68 239.68,103.68 
			239.68,121 		"/>
		<path class="st1" d="M255.9,111.34V97.48h7.23v13.61c0,2.26,1.48,4.06,4.41,4.06c2.89,0,4.37-1.8,4.37-4.06V97.48h7.23v13.82
			c0,5.85-3.67,10.12-11.6,10.12C259.61,121.42,255.9,117.15,255.9,111.34"/>
		<path class="st1" d="M306.55,109.22c0-3.17-1.83-5.54-5.64-5.54h-3.42v11.11h3.39C304.43,114.79,306.55,112.18,306.55,109.22
			 M290.37,121V97.48h10.5c7.41,0,12.9,4.23,12.9,11.74c0,7.51-5.5,11.77-12.87,11.77H290.37z"/>
		<rect x="323.74" y="97.48" class="st1" width="7.12" height="23.51"/>
		<path class="st1" d="M359.34,109.26c0-3.28-2.22-5.89-5.64-5.89c-3.42,0-5.64,2.61-5.64,5.89c0,3.28,2.22,5.89,5.64,5.89
			C357.11,115.15,359.34,112.54,359.34,109.26 M340.83,109.26c0-7.23,5.61-12.16,12.87-12.16c7.26,0,12.87,4.93,12.87,12.16
			c0,7.23-5.6,12.17-12.87,12.17C346.43,121.42,340.83,116.48,340.83,109.26"/>
	</g>
</g>
</svg>
