<?xml version="1.0" encoding="utf-8"?>
<!-- Generator: Adobe Illustrator 25.2.0, SVG Export Plug-In . SVG Version: 6.00 Build 0)  -->
<svg version="1.1" id="Layer_1" xmlns="http://www.w3.org/2000/svg" xmlns:xlink="http://www.w3.org/1999/xlink" x="0px" y="0px"
	 viewBox="0 0 189.41 121.76" style="enable-background:new 0 0 189.41 121.76;" xml:space="preserve">
<style type="text/css">
	.st0{fill:#E4003A;}
</style>
<g>
	<path class="st0" d="M46.97,69.27c0-2.05,1.73-3.78,3.77-3.78c2.05,0,3.77,1.73,3.77,3.78c0,2.04-1.73,3.77-3.77,3.77
		C48.7,73.04,46.97,71.31,46.97,69.27"/>
	<rect x="64.04" y="49.1" class="st0" width="7.12" height="23.52"/>
	<polygon class="st0" points="98.19,72.62 89.51,60.7 89.51,72.62 82.39,72.62 82.39,49.1 89.72,49.1 97.9,60.24 97.9,49.1 
		105.03,49.1 105.03,72.62 	"/>
	<path class="st0" d="M133.51,60.88c0-3.28-2.22-5.89-5.64-5.89c-3.42,0-5.65,2.61-5.65,5.89c0,3.28,2.22,5.89,5.65,5.89
		C131.29,66.77,133.51,64.16,133.51,60.88 M115,60.88c0-7.23,5.61-12.16,12.87-12.16c7.26,0,12.87,4.94,12.87,12.16
		c0,7.23-5.61,12.17-12.87,12.17C120.61,73.04,115,68.1,115,60.88"/>
</g>
</svg>
