<?xml version="1.0" encoding="utf-8"?>
<!-- Generator: Adobe Illustrator 25.2.0, SVG Export Plug-In . SVG Version: 6.00 Build 0)  -->
<svg version="1.1" id="Layer_1" xmlns="http://www.w3.org/2000/svg" xmlns:xlink="http://www.w3.org/1999/xlink" x="0px" y="0px"
	 viewBox="0 0 188.95 195.08" style="enable-background:new 0 0 188.95 195.08;" xml:space="preserve">
<style type="text/css">
	.st0{fill:#E4003A;}
</style>
<g>
	<path class="st0" d="M94.47,62.98c-10.15,0-18.4,8.26-18.4,18.4v0.73h0v18.17c5.89-0.65,10.47-5.64,10.47-11.7v-4.32h0v-2.87
		c0-4.37,3.56-7.93,7.93-7.93c4.37,0,7.93,3.56,7.93,7.93v0.73h0v6.47c0,6.06,4.58,11.05,10.47,11.7V85.55h0v-4.16
		C112.88,71.24,104.62,62.98,94.47,62.98z"/>
	<path class="st0" d="M94.47,95.3c-10.15,0-18.4,8.25-18.4,18.4c0,10.15,8.25,18.4,18.4,18.4c10.15,0,18.4-8.26,18.4-18.4
		C112.88,103.55,104.62,95.3,94.47,95.3z M94.47,121.63c-4.37,0-7.93-3.56-7.93-7.93c0-4.37,3.56-7.93,7.93-7.93
		c4.37,0,7.93,3.56,7.93,7.93C102.41,118.07,98.85,121.63,94.47,121.63z"/>
	<path class="st0" d="M65.53,62.98h-2.55v25.6c0,6.06,4.58,11.05,10.47,11.7V70.9C73.45,66.53,69.91,62.98,65.53,62.98z"/>
	<path class="st0" d="M123.41,62.98c-4.37,0-7.92,3.55-7.92,7.92v29.38c5.89-0.65,10.47-5.64,10.47-11.7v-25.6H123.41z"/>
</g>
</svg>
