<?xml version="1.0" encoding="utf-8"?>
<!-- Generator: Adobe Illustrator 25.2.0, SVG Export Plug-In . SVG Version: 6.00 Build 0)  -->
<svg version="1.1" id="Layer_1" xmlns="http://www.w3.org/2000/svg" xmlns:xlink="http://www.w3.org/1999/xlink" x="0px" y="0px"
	 viewBox="0 0 366.16 121.37" style="enable-background:new 0 0 366.16 121.37;" xml:space="preserve">
<style type="text/css">
	.st0{fill:#E4003A;}
</style>
<g>
	<path class="st0" d="M46.9,69.04c0-2.04,1.73-3.77,3.77-3.77c2.04,0,3.77,1.73,3.77,3.77c0,2.04-1.73,3.77-3.77,3.77
		C48.63,72.81,46.9,71.08,46.9,69.04"/>
	<rect x="63.94" y="48.9" class="st0" width="7.11" height="23.48"/>
	<polygon class="st0" points="98.04,72.38 89.37,60.48 89.37,72.38 82.26,72.38 82.26,48.9 89.58,48.9 97.75,60.02 97.75,48.9 
		104.87,48.9 104.87,72.38 	"/>
	<path class="st0" d="M133.3,60.66c0-3.27-2.22-5.88-5.63-5.88c-3.42,0-5.64,2.61-5.64,5.88c0,3.28,2.22,5.88,5.64,5.88
		C131.09,66.54,133.3,63.93,133.3,60.66 M114.82,60.66c0-7.22,5.6-12.15,12.85-12.15c7.25,0,12.85,4.93,12.85,12.15
		c0,7.22-5.6,12.15-12.85,12.15C120.42,72.81,114.82,67.88,114.82,60.66"/>
	<path class="st0" d="M148.69,69.07l3.7-5.28c1.76,1.69,4.4,3.03,7.57,3.03c1.34,0,2.6-0.36,2.6-1.27c0-2.25-13.1,0.04-13.1-9.23
		c0-3.98,3.31-7.78,9.75-7.78c3.84,0,7.29,1.09,9.97,3.27l-3.8,5.03c-2.04-1.55-4.68-2.32-6.9-2.32c-1.4,0-1.8,0.46-1.8,1.06
		c0,2.21,13.06,0.31,13.06,9.04c0,5.18-3.84,8.17-10.14,8.17C154.6,72.81,151.19,71.33,148.69,69.07"/>
	<polygon class="st0" points="183.81,72.38 183.81,55.09 177.5,55.09 177.5,48.9 197.19,48.9 197.19,55.09 190.92,55.09 
		190.92,72.38 	"/>
	<path class="st0" d="M207.12,62.74V48.9h7.22v13.59c0,2.26,1.48,4.05,4.4,4.05c2.89,0,4.36-1.8,4.36-4.05V48.9h7.22V62.7
		c0,5.84-3.67,10.11-11.59,10.11C210.82,72.81,207.12,68.55,207.12,62.74"/>
	<path class="st0" d="M257.7,60.63c0-3.17-1.83-5.53-5.63-5.53h-3.42v11.09h3.38C255.59,66.19,257.7,63.58,257.7,60.63
		 M241.54,72.38V48.9h10.49c7.4,0,12.89,4.22,12.89,11.73c0,7.5-5.49,11.76-12.85,11.76H241.54z"/>
	<rect x="274.87" y="48.9" class="st0" width="7.11" height="23.48"/>
	<path class="st0" d="M310.43,60.66c0-3.27-2.22-5.88-5.63-5.88c-3.41,0-5.63,2.61-5.63,5.88c0,3.28,2.22,5.88,5.63,5.88
		C308.21,66.54,310.43,63.93,310.43,60.66 M291.94,60.66c0-7.22,5.6-12.15,12.85-12.15c7.25,0,12.85,4.93,12.85,12.15
		c0,7.22-5.6,12.15-12.85,12.15C297.54,72.81,291.94,67.88,291.94,60.66"/>
</g>
</svg>
