<svg width="380" height="147" viewBox="0 0 380 147" fill="none" xmlns="http://www.w3.org/2000/svg">
<path d="M189.358 51.9535C187.592 51.9535 186.106 51.5578 184.901 50.7665C183.696 49.9579 182.847 48.8655 182.354 47.4893L185.359 45.7088C186.056 47.5495 187.422 48.4698 189.46 48.4698C190.444 48.4698 191.166 48.2892 191.624 47.928C192.083 47.5667 192.312 47.1108 192.312 46.5603C192.312 45.9238 192.032 45.4335 191.472 45.0894C190.911 44.7282 189.91 44.3411 188.466 43.9282C187.668 43.6874 186.989 43.4466 186.429 43.2057C185.886 42.9649 185.334 42.6466 184.774 42.2509C184.23 41.8381 183.814 41.322 183.526 40.7027C183.237 40.0834 183.093 39.3608 183.093 38.5351C183.093 36.9008 183.662 35.602 184.799 34.6386C185.954 33.658 187.337 33.1677 188.95 33.1677C190.393 33.1677 191.658 33.529 192.745 34.2515C193.849 34.9568 194.706 35.946 195.317 37.219L192.363 38.948C191.65 37.3997 190.512 36.6255 188.95 36.6255C188.22 36.6255 187.643 36.7976 187.219 37.1416C186.811 37.4685 186.607 37.8986 186.607 38.4319C186.607 38.9996 186.837 39.464 187.295 39.8253C187.77 40.1694 188.67 40.5478 189.994 40.9607C190.538 41.1327 190.945 41.2704 191.217 41.3736C191.506 41.4596 191.888 41.6058 192.363 41.8123C192.855 42.0015 193.229 42.1821 193.484 42.3542C193.755 42.5262 194.061 42.7584 194.4 43.0509C194.74 43.3433 194.995 43.6444 195.164 43.9541C195.351 44.2637 195.504 44.6422 195.623 45.0894C195.759 45.5195 195.827 45.9926 195.827 46.5087C195.827 48.1774 195.224 49.502 194.018 50.4826C192.83 51.4632 191.276 51.9535 189.358 51.9535Z" fill="black"/>
<path d="M215.542 49.244C213.742 51.0503 211.552 51.9535 208.971 51.9535C206.39 51.9535 204.2 51.0503 202.4 49.244C200.618 47.4205 199.726 45.1927 199.726 42.5606C199.726 39.9285 200.618 37.7093 202.4 35.903C204.2 34.0795 206.39 33.1677 208.971 33.1677C211.552 33.1677 213.742 34.0795 215.542 35.903C217.341 37.7093 218.241 39.9285 218.241 42.5606C218.241 45.1927 217.341 47.4205 215.542 49.244ZM204.871 46.8184C205.974 47.9194 207.341 48.4698 208.971 48.4698C210.601 48.4698 211.968 47.9194 213.071 46.8184C214.175 45.7002 214.727 44.2809 214.727 42.5606C214.727 40.8403 214.175 39.421 213.071 38.3028C211.968 37.1846 210.601 36.6255 208.971 36.6255C207.341 36.6255 205.974 37.1846 204.871 38.3028C203.767 39.421 203.215 40.8403 203.215 42.5606C203.215 44.2809 203.767 45.7002 204.871 46.8184Z" fill="black"/>
<path d="M233.903 36.9352H226.772V41.2188H233.7V44.625H226.772V51.5922H223.258V33.529H233.903V36.9352Z" fill="black"/>
<path d="M250.802 33.529V36.9352H245.989V51.5922H242.475V36.9352H237.687V33.529H250.802Z" fill="black"/>
<path d="M259.029 51.5922L254.038 33.529H257.731L261.143 46.9216L264.861 33.529H267.867L271.61 46.9216L275.023 33.529H278.716L273.724 51.5922H269.726L266.364 39.6705L263.028 51.5922H259.029Z" fill="black"/>
<path d="M293.741 51.5922L292.672 48.3408H285.566L284.496 51.5922H280.702L286.941 33.529H291.296L297.561 51.5922H293.741ZM286.687 45.012H291.576L289.132 37.6319L286.687 45.012Z" fill="black"/>
<path d="M311.618 51.5922L308.028 45.3217H305.354V51.5922H301.839V33.529H308.97C310.617 33.529 312.017 34.1139 313.172 35.2837C314.327 36.4535 314.904 37.8642 314.904 39.5157C314.904 40.6339 314.59 41.6746 313.961 42.638C313.333 43.5842 312.501 44.2981 311.466 44.7798L315.413 51.5922H311.618ZM305.354 36.8578V42.1993H308.97C309.632 42.1993 310.201 41.9413 310.676 41.4252C311.152 40.8919 311.389 40.2554 311.389 39.5157C311.389 38.7759 311.152 38.148 310.676 37.6319C310.201 37.1158 309.632 36.8578 308.97 36.8578H305.354Z" fill="black"/>
<path d="M323.544 48.186H331.057V51.5922H320.029V33.529H330.929V36.9352H323.544V40.7801H330.293V44.1347H323.544V48.186Z" fill="black"/>
<path d="M190.351 65.7847C192.796 65.7847 194.833 66.6535 196.463 68.391C198.11 70.1285 198.934 72.2703 198.934 74.8164C198.934 77.3624 198.11 79.5042 196.463 81.2417C194.833 82.9792 192.796 83.848 190.351 83.848H183.271V65.7847H190.351ZM190.351 80.4418C191.896 80.4418 193.152 79.9257 194.12 78.8935C195.088 77.8441 195.572 76.4851 195.572 74.8164C195.572 73.1477 195.088 71.7972 194.12 70.765C193.152 69.7156 191.896 69.1909 190.351 69.1909H186.786V80.4418H190.351Z" fill="black"/>
<path d="M207.488 80.4418H215.001V83.848H203.973V65.7847H214.873V69.1909H207.488V73.0358H214.237V76.3904H207.488V80.4418Z" fill="black"/>
<path d="M224.431 83.848L218.446 65.7847H222.266L226.621 79.6676L230.95 65.7847H234.796L228.786 83.848H224.431Z" fill="black"/>
<path d="M242.575 80.4418H250.088V83.848H239.061V65.7847H249.961V69.1909H242.575V73.0358H249.324V76.3904H242.575V80.4418Z" fill="black"/>
<path d="M258.627 80.4418H265.426V83.848H255.112V65.7847H258.627V80.4418Z" fill="black"/>
<path d="M283.876 81.4997C282.076 83.3061 279.886 84.2092 277.305 84.2092C274.725 84.2092 272.534 83.3061 270.735 81.4997C268.952 79.6762 268.061 77.4484 268.061 74.8164C268.061 72.1843 268.952 69.9651 270.735 68.1588C272.534 66.3352 274.725 65.4235 277.305 65.4235C279.886 65.4235 282.076 66.3352 283.876 68.1588C285.676 69.9651 286.575 72.1843 286.575 74.8164C286.575 77.4484 285.676 79.6762 283.876 81.4997ZM273.205 79.0741C274.309 80.1751 275.675 80.7256 277.305 80.7256C278.935 80.7256 280.302 80.1751 281.406 79.0741C282.509 77.9559 283.061 76.5367 283.061 74.8164C283.061 73.0961 282.509 71.6768 281.406 70.5586C280.302 69.4404 278.935 68.8813 277.305 68.8813C275.675 68.8813 274.309 69.4404 273.205 70.5586C272.101 71.6768 271.55 73.0961 271.55 74.8164C271.55 76.5367 272.101 77.9559 273.205 79.0741Z" fill="black"/>
<path d="M298.239 65.7847C299.954 65.7847 301.397 66.3696 302.569 67.5395C303.74 68.7093 304.326 70.1457 304.326 71.8488C304.326 73.5519 303.74 74.9884 302.569 76.1582C301.397 77.328 299.954 77.9129 298.239 77.9129H295.107V83.848H291.592V65.7847H298.239ZM298.239 74.5841C298.986 74.5841 299.606 74.3261 300.098 73.81C300.591 73.2767 300.837 72.6229 300.837 71.8488C300.837 71.0575 300.591 70.4038 300.098 69.8877C299.606 69.3716 298.986 69.1135 298.239 69.1135H295.107V74.5841H298.239Z" fill="black"/>
<path d="M326.606 65.7847V83.848H323.117V72.1327L318.1 80.5192H317.692L312.675 72.1585V83.848H309.161V65.7847H312.777L317.896 74.3261L322.99 65.7847H326.606Z" fill="black"/>
<path d="M335.989 80.4418H343.502V83.848H332.475V65.7847H343.375V69.1909H335.989V73.0358H342.738V76.3904H335.989V80.4418Z" fill="black"/>
<path d="M358.84 65.7847H362.355V83.848H359.681L352.041 72.8036V83.848H348.526V65.7847H351.2L358.84 76.8033V65.7847Z" fill="black"/>
<path d="M380 65.7847V69.1909H375.187V83.848H371.672V69.1909H366.884V65.7847H380Z" fill="black"/>
<path d="M191.726 116.465C189.044 116.465 186.828 115.562 185.079 113.755C183.33 111.949 182.456 109.721 182.456 107.072C182.456 104.406 183.33 102.178 185.079 100.389C186.828 98.5824 189.044 97.6792 191.726 97.6792C193.339 97.6792 194.825 98.0663 196.183 98.8404C197.558 99.5974 198.628 100.63 199.392 101.937L196.361 103.718C195.92 102.909 195.292 102.281 194.477 101.834C193.662 101.369 192.745 101.137 191.726 101.137C189.994 101.137 188.594 101.688 187.524 102.789C186.471 103.89 185.945 105.317 185.945 107.072C185.945 108.81 186.471 110.229 187.524 111.33C188.594 112.431 189.994 112.981 191.726 112.981C192.745 112.981 193.662 112.758 194.477 112.31C195.309 111.846 195.937 111.218 196.361 110.427L199.392 112.207C198.628 113.515 197.567 114.555 196.209 115.33C194.85 116.087 193.356 116.465 191.726 116.465Z" fill="black"/>
<path d="M218.924 113.755C217.124 115.562 214.934 116.465 212.353 116.465C209.773 116.465 207.582 115.562 205.783 113.755C204 111.932 203.109 109.704 203.109 107.072C203.109 104.44 204 102.221 205.783 100.414C207.582 98.591 209.773 97.6792 212.353 97.6792C214.934 97.6792 217.124 98.591 218.924 100.414C220.724 102.221 221.623 104.44 221.623 107.072C221.623 109.704 220.724 111.932 218.924 113.755ZM208.253 111.33C209.357 112.431 210.723 112.981 212.353 112.981C213.983 112.981 215.35 112.431 216.454 111.33C217.557 110.212 218.109 108.792 218.109 107.072C218.109 105.352 217.557 103.933 216.454 102.814C215.35 101.696 213.983 101.137 212.353 101.137C210.723 101.137 209.357 101.696 208.253 102.814C207.149 103.933 206.598 105.352 206.598 107.072C206.598 108.792 207.149 110.212 208.253 111.33Z" fill="black"/>
<path d="M244.086 98.0405V116.104H240.597V104.388L235.579 112.775H235.172L230.155 104.414V116.104H226.64V98.0405H230.257L235.376 106.582L240.469 98.0405H244.086Z" fill="black"/>
<path d="M256.601 98.0405C258.316 98.0405 259.759 98.6254 260.93 99.7952C262.102 100.965 262.688 102.401 262.688 104.105C262.688 105.808 262.102 107.244 260.93 108.414C259.759 109.584 258.316 110.169 256.601 110.169H253.469V116.104H249.954V98.0405H256.601ZM256.601 106.84C257.348 106.84 257.968 106.582 258.46 106.066C258.953 105.532 259.199 104.879 259.199 104.105C259.199 103.313 258.953 102.66 258.46 102.143C257.968 101.627 257.348 101.369 256.601 101.369H253.469V106.84H256.601Z" fill="black"/>
<path d="M277.167 116.104L276.098 112.852H268.992L267.923 116.104H264.128L270.368 98.0405H274.723L280.988 116.104H277.167ZM270.113 109.524H275.003L272.558 102.143L270.113 109.524Z" fill="black"/>
<path d="M295.58 98.0405H299.094V116.104H296.42L288.78 105.059V116.104H285.265V98.0405H287.939L295.58 109.059V98.0405Z" fill="black"/>
<path d="M319.057 98.0405L312.945 109.059V116.104H309.456V109.059L303.369 98.0405H307.342L311.213 105.575L315.084 98.0405H319.057Z" fill="black"/>
<path d="M0 116.803V40.0087L20.2556 28.1043V116.803H0Z" fill="#72A1F9"/>
<path fill-rule="evenodd" clip-rule="evenodd" d="M50.3507 56.2587H68.094V36.5304H50.3507V10.4822L30.0951 22.2906V36.6628L30.1146 37.1506C30.1094 46.0006 30.0951 56.2587 30.0951 56.2587V89.3513C30.0951 100.276 32.9214 107.86 38.5742 112.102C44.3316 116.345 54.1715 117.671 68.094 116.08V97.4653C64.2208 97.6775 60.9757 97.7305 58.3587 97.6244C55.7417 97.4123 53.7528 96.6698 52.3919 95.397C51.0311 94.1243 50.3507 92.109 50.3507 89.3513V56.2587Z" fill="#72A1F9"/>
<path d="M2.9375 17.5995C4.98098 19.5838 7.36504 20.5759 10.0897 20.5759C12.8995 20.5759 15.2835 19.5838 17.2418 17.5995C19.2853 15.529 20.3071 13.1134 20.3071 10.3526C20.3071 7.59195 19.2853 5.17633 17.2418 3.10579C15.2835 1.03526 12.8995 0 10.0897 0C7.36504 0 4.98098 1.03526 2.9375 3.10579C0.979167 5.17633 0 7.59195 0 10.3526C0 13.1134 0.979167 15.529 2.9375 17.5995Z" fill="#72A1F9"/>
<path d="M97.6772 146.934H77.3768V34.8647H97.6772V146.934Z" fill="#72A1F9"/>
<path fill-rule="evenodd" clip-rule="evenodd" d="M117.66 116.543C139.908 116.543 157.944 98.2689 157.944 75.7264C157.944 53.1839 139.908 34.9095 117.66 34.9095C95.4123 34.9095 77.3768 53.1839 77.3768 75.7264C77.3768 98.2689 95.4123 116.543 117.66 116.543ZM117.66 96.1348C128.784 96.1348 137.802 86.9976 137.802 75.7264C137.802 64.4551 128.784 55.318 117.66 55.318C106.536 55.318 97.5185 64.4551 97.5185 75.7264C97.5185 86.9976 106.536 96.1348 117.66 96.1348Z" fill="#72A1F9"/>
</svg>
